# xmcd
#
# Track frame offsets:
#	150
#	12382
#	24615
#
# Disc length: 546 seconds
#
# Revision: 0
# Processed by: cddbd v1.5.1PL0 Copyright (c) Steve Scherf et al.
# Submitted via: dBpowerAMP V4.0
#
DISCID=1b022003
DTITLE=Elliott, Alecia - I'm Diggin' It - Single
DYEAR=2000
DGENRE=Country
TTITLE0=I'm Diggin' It (album version)
TTITLE1=I'm Diggin' It (album version)
TTITLE2=I'm Diggin' It (dance mix)
EXTD=
EXTT0=
EXTT1=
EXTT2=
PLAYORDER=
